<svg width="40" height="40" viewBox="0 0 40 40" fill="none" xmlns="http://www.w3.org/2000/svg">
<path fill-rule="evenodd" clip-rule="evenodd" d="M40 20C40 31.0457 31.0457 40 20 40C8.9543 40 0 31.0457 0 20C0 8.9543 8.9543 0 20 0C31.0457 0 40 8.9543 40 20ZM5.00005 19.7414C4.98679 19.6684 7.49343 17.1142 12.2945 12.3176L19.6088 5H23.9988C26.8635 5 28.4086 5.0199 28.4285 5.06634C28.4484 5.09951 24.1911 9.43833 18.9722 14.6993C13.7534 19.9669 9.46293 24.2792 9.4364 24.2925C9.41651 24.3057 8.41518 23.3106 7.20828 22.0833C6.00801 20.8493 5.01332 19.8011 5.00005 19.7414ZM16.0478 22.0169L17.8317 20.2854L19.6088 18.5472L24.0054 18.5406C26.4192 18.5406 28.4086 18.5605 28.4285 18.587C28.4417 18.6135 26.7069 20.3889 20.683 26.4288L20.6699 26.4155L20.6561 26.4289L19.3129 25.1497C19.0314 24.879 18.7183 24.5795 18.3888 24.266C18.1604 24.0462 17.9384 23.8335 17.7281 23.6329C17.1256 23.0552 16.5432 22.4963 16.0478 22.0169ZM17.1378 29.8986C16.8175 30.2165 16.4703 30.5609 16.0943 30.9334L13.853 28.7308C12.6195 27.5168 11.6116 26.5017 11.6182 26.4619C11.6182 26.4287 12.6063 25.4203 13.8198 24.2328C15.1461 22.9192 16.0479 22.0833 16.101 22.1098C16.1333 22.126 16.8211 22.7674 17.7281 23.6329L18.0212 23.9139L18.0214 23.9141C18.3077 24.1885 18.596 24.465 18.8794 24.737L19.3129 25.1497C20.0737 25.8814 20.6036 26.4027 20.6036 26.4221C20.6036 26.433 20.298 26.7477 19.4444 27.602L18.906 28.1205L18.9158 28.1302C18.8119 28.2338 18.7024 28.343 18.5869 28.458C18.3301 28.7076 17.9454 29.0882 17.5201 29.5137C17.3866 29.6473 17.2583 29.7765 17.1378 29.8986ZM16.749 30.7162C16.302 30.868 16.1303 30.9316 16.1274 30.94C16.1274 30.9599 16.89 31.7096 17.8184 32.6185L19.5094 34.2572L28.3755 34.224L20.683 26.4288L20.6699 26.442L20.6561 26.4289L19.7879 27.2713L19.4444 27.602C19.2873 27.7593 19.1116 27.9348 18.9158 28.1302L19.8169 29.0192C19.1485 28.3615 18.9289 28.1536 18.9127 28.1536C18.9041 28.1536 18.7826 28.2678 18.5869 28.458C18.1802 28.8632 17.7005 29.3402 17.1378 29.8986C16.5826 30.4615 16.1943 30.8737 16.227 30.8737C16.2447 30.8737 16.4398 30.8146 16.749 30.7162ZM16.749 30.7162C17.3537 30.5108 18.4624 30.1439 20.3383 29.5336L19.8169 29.0192C19.9672 29.167 20.1401 29.3376 20.3384 29.5336L18.3159 30.2036C17.6976 30.4098 17.1346 30.5935 16.749 30.7162Z" fill="white"/>
</svg>
